<svg xmlns="http://www.w3.org/2000/svg" xmlns:xlink="http://www.w3.org/1999/xlink" width="200" zoomAndPan="magnify" viewBox="0 0 150 37.5" height="50" preserveAspectRatio="xMidYMid meet" version="1.0"><defs><g/><clipPath id="30a1eff3a2"><path d="M 7 3.699219 L 18 3.699219 L 18 9 L 7 9 Z M 7 3.699219 " clip-rule="nonzero"/></clipPath></defs><g clip-path="url(#30a1eff3a2)"><path fill="#4a6cf7" d="M 17.722656 3.773438 C 17.296875 3.726562 16.863281 3.703125 16.425781 3.703125 C 12.757812 3.710938 9.46875 5.308594 7.214844 7.835938 C 7.875 8.023438 8.609375 8.1875 9.414062 8.296875 C 11.410156 5.816406 14.363281 4.125 17.722656 3.773438 " fill-opacity="1" fill-rule="nonzero"/></g><path fill="#4a6cf7" d="M 6.722656 8.429688 C 6.371094 8.878906 6.050781 9.351562 5.761719 9.847656 C 5.636719 10.066406 5.515625 10.289062 5.402344 10.515625 C 4.847656 11.636719 4.457031 12.855469 4.269531 14.136719 C 4.835938 14.332031 5.691406 14.585938 6.777344 14.78125 C 6.902344 13.398438 7.265625 12.082031 7.820312 10.871094 C 15.382812 11.484375 19.660156 7.023438 19.660156 7.023438 C 14.253906 9.917969 9.597656 9.351562 6.722656 8.429688 " fill-opacity="1" fill-rule="nonzero"/><path fill="#4a6cf7" d="M 22.882812 11.492188 C 14.519531 18.019531 6.5 15.925781 4.167969 15.097656 C 4.148438 15.363281 4.140625 15.636719 4.140625 15.910156 C 4.140625 16.460938 4.175781 17.003906 4.25 17.535156 C 4.292969 17.878906 4.355469 18.21875 4.429688 18.550781 C 4.664062 19.605469 5.039062 20.609375 5.527344 21.542969 C 6.300781 21.742188 7.265625 21.929688 8.386719 22.035156 C 7.789062 21.015625 7.335938 19.898438 7.054688 18.71875 C 17.949219 18.824219 22.882812 11.492188 22.882812 11.492188 " fill-opacity="1" fill-rule="nonzero"/><path fill="#4a6cf7" d="M 7.957031 24.742188 C 8.207031 24.976562 8.464844 25.199219 8.730469 25.414062 C 10.15625 26.554688 11.847656 27.386719 13.695312 27.804688 C 14.089844 27.675781 14.484375 27.542969 14.882812 27.398438 C 13.445312 26.886719 12.132812 26.121094 11 25.152344 C 19.148438 23.78125 22.882812 18.234375 22.882812 18.234375 C 16.058594 23.558594 9.464844 23.144531 6 22.359375 C 6.550781 23.234375 7.210938 24.035156 7.957031 24.742188 " fill-opacity="1" fill-rule="nonzero"/><path fill="#293d96" d="M 34.945312 10.210938 C 34.164062 8.570312 32.492188 7.476562 30.234375 6.933594 C 31.285156 7.523438 32.078125 8.3125 32.546875 9.300781 C 34.84375 14.117188 28.585938 21.820312 18.574219 26.5 C 11.96875 29.589844 5.382812 30.589844 1.003906 29.535156 C 5.074219 31.828125 13.011719 31.132812 20.96875 27.414062 C 30.984375 22.730469 37.238281 15.03125 34.945312 10.210938 " fill-opacity="1" fill-rule="nonzero"/><g fill="#000000" fill-opacity="1"><g transform="translate(41.167738, 21.463816)"><g><path d="M 5.359375 -3.640625 C 5.765625 -3.515625 6.078125 -3.300781 6.296875 -3 C 6.523438 -2.707031 6.640625 -2.347656 6.640625 -1.921875 C 6.640625 -1.535156 6.535156 -1.195312 6.328125 -0.90625 C 6.128906 -0.613281 5.84375 -0.390625 5.46875 -0.234375 C 5.09375 -0.078125 4.644531 0 4.125 0 L 0.625 0 L 0.625 -7.015625 L 4.046875 -7.015625 C 4.773438 -7.015625 5.359375 -6.847656 5.796875 -6.515625 C 6.234375 -6.191406 6.453125 -5.753906 6.453125 -5.203125 C 6.453125 -4.835938 6.351562 -4.515625 6.15625 -4.234375 C 5.96875 -3.960938 5.703125 -3.765625 5.359375 -3.640625 Z M 2.4375 -4.265625 L 3.734375 -4.265625 C 4.066406 -4.265625 4.3125 -4.316406 4.46875 -4.421875 C 4.632812 -4.523438 4.71875 -4.691406 4.71875 -4.921875 C 4.71875 -5.160156 4.632812 -5.335938 4.46875 -5.453125 C 4.3125 -5.566406 4.066406 -5.625 3.734375 -5.625 L 2.4375 -5.625 Z M 3.921875 -1.40625 C 4.273438 -1.40625 4.523438 -1.457031 4.671875 -1.5625 C 4.828125 -1.675781 4.90625 -1.863281 4.90625 -2.125 C 4.90625 -2.394531 4.828125 -2.585938 4.671875 -2.703125 C 4.523438 -2.816406 4.273438 -2.875 3.921875 -2.875 L 2.4375 -2.875 L 2.4375 -1.40625 Z M 3.921875 -1.40625 "/></g></g></g><g fill="#000000" fill-opacity="1"><g transform="translate(48.941319, 21.463816)"><g><path d="M 6.734375 0 L 4.765625 0 L 3.859375 -2.34375 C 3.753906 -2.601562 3.507812 -2.734375 3.125 -2.734375 L 2.453125 -2.734375 L 2.453125 0 L 0.625 0 L 0.625 -7.015625 L 3.890625 -7.015625 C 4.742188 -7.015625 5.382812 -6.832031 5.8125 -6.46875 C 6.238281 -6.101562 6.453125 -5.582031 6.453125 -4.90625 C 6.453125 -4.4375 6.320312 -4.03125 6.0625 -3.6875 C 5.8125 -3.34375 5.457031 -3.097656 5 -2.953125 C 5.195312 -2.910156 5.375 -2.816406 5.53125 -2.671875 C 5.6875 -2.523438 5.8125 -2.332031 5.90625 -2.09375 Z M 3.59375 -4.109375 C 3.988281 -4.109375 4.273438 -4.164062 4.453125 -4.28125 C 4.628906 -4.40625 4.71875 -4.597656 4.71875 -4.859375 C 4.71875 -5.128906 4.628906 -5.320312 4.453125 -5.4375 C 4.285156 -5.5625 4 -5.625 3.59375 -5.625 L 2.4375 -5.625 L 2.4375 -4.109375 Z M 3.59375 -4.109375 "/></g></g></g><g fill="#000000" fill-opacity="1"><g transform="translate(56.833278, 21.463816)"><g><path d="M 3.96875 0.09375 C 3.257812 0.09375 2.632812 -0.0507812 2.09375 -0.34375 C 1.5625 -0.632812 1.148438 -1.050781 0.859375 -1.59375 C 0.578125 -2.144531 0.4375 -2.785156 0.4375 -3.515625 C 0.4375 -4.242188 0.582031 -4.878906 0.875 -5.421875 C 1.164062 -5.960938 1.578125 -6.378906 2.109375 -6.671875 C 2.640625 -6.960938 3.257812 -7.109375 3.96875 -7.109375 C 4.6875 -7.109375 5.3125 -6.960938 5.84375 -6.671875 C 6.375 -6.378906 6.78125 -5.960938 7.0625 -5.421875 C 7.34375 -4.878906 7.484375 -4.242188 7.484375 -3.515625 C 7.484375 -2.785156 7.34375 -2.144531 7.0625 -1.59375 C 6.78125 -1.050781 6.375 -0.632812 5.84375 -0.34375 C 5.3125 -0.0507812 4.6875 0.09375 3.96875 0.09375 Z M 3.96875 -1.328125 C 4.5 -1.328125 4.910156 -1.507812 5.203125 -1.875 C 5.503906 -2.25 5.65625 -2.796875 5.65625 -3.515625 C 5.65625 -4.222656 5.503906 -4.765625 5.203125 -5.140625 C 4.910156 -5.515625 4.5 -5.703125 3.96875 -5.703125 C 3.445312 -5.703125 3.035156 -5.515625 2.734375 -5.140625 C 2.441406 -4.773438 2.296875 -4.234375 2.296875 -3.515625 C 2.296875 -2.796875 2.441406 -2.25 2.734375 -1.875 C 3.035156 -1.507812 3.445312 -1.328125 3.96875 -1.328125 Z M 3.96875 -1.328125 "/></g></g></g><g fill="#000000" fill-opacity="1"><g transform="translate(65.622902, 21.463816)"><g><path d="M 7.5 0 L 5.296875 0 L 2.484375 -3.1875 L 2.484375 0 L 0.625 0 L 0.625 -7.015625 L 2.484375 -7.015625 L 2.484375 -4 L 5.21875 -7.015625 L 7.390625 -7.015625 L 4.28125 -3.6875 Z M 7.5 0 "/></g></g></g><g fill="#000000" fill-opacity="1"><g transform="translate(73.435942, 21.463816)"><g><path d="M 0.625 0 L 0.625 -7.015625 L 5.640625 -7.015625 L 5.640625 -5.59375 L 2.4375 -5.59375 L 2.4375 -4.28125 L 5.4375 -4.28125 L 5.4375 -2.859375 L 2.4375 -2.859375 L 2.4375 -1.421875 L 5.640625 -1.421875 L 5.640625 0 Z M 0.625 0 "/></g></g></g><g fill="#000000" fill-opacity="1"><g transform="translate(80.242798, 21.463816)"><g><path d="M 6.734375 0 L 4.765625 0 L 3.859375 -2.34375 C 3.753906 -2.601562 3.507812 -2.734375 3.125 -2.734375 L 2.453125 -2.734375 L 2.453125 0 L 0.625 0 L 0.625 -7.015625 L 3.890625 -7.015625 C 4.742188 -7.015625 5.382812 -6.832031 5.8125 -6.46875 C 6.238281 -6.101562 6.453125 -5.582031 6.453125 -4.90625 C 6.453125 -4.4375 6.320312 -4.03125 6.0625 -3.6875 C 5.8125 -3.34375 5.457031 -3.097656 5 -2.953125 C 5.195312 -2.910156 5.375 -2.816406 5.53125 -2.671875 C 5.6875 -2.523438 5.8125 -2.332031 5.90625 -2.09375 Z M 3.59375 -4.109375 C 3.988281 -4.109375 4.273438 -4.164062 4.453125 -4.28125 C 4.628906 -4.40625 4.71875 -4.597656 4.71875 -4.859375 C 4.71875 -5.128906 4.628906 -5.320312 4.453125 -5.4375 C 4.285156 -5.5625 4 -5.625 3.59375 -5.625 L 2.4375 -5.625 L 2.4375 -4.109375 Z M 3.59375 -4.109375 "/></g></g></g><g fill="#000000" fill-opacity="1"><g transform="translate(88.134758, 21.463816)"><g/></g></g><g fill="#000000" fill-opacity="1"><g transform="translate(91.844151, 21.463816)"><g><path d="M 4.046875 0.09375 C 3.316406 0.09375 2.679688 -0.0546875 2.140625 -0.359375 C 1.597656 -0.660156 1.175781 -1.082031 0.875 -1.625 C 0.582031 -2.164062 0.4375 -2.796875 0.4375 -3.515625 C 0.4375 -4.222656 0.582031 -4.847656 0.875 -5.390625 C 1.175781 -5.941406 1.597656 -6.363281 2.140625 -6.65625 C 2.679688 -6.957031 3.316406 -7.109375 4.046875 -7.109375 C 4.503906 -7.109375 4.945312 -7.035156 5.375 -6.890625 C 5.8125 -6.753906 6.160156 -6.570312 6.421875 -6.34375 L 5.859375 -5.03125 C 5.285156 -5.445312 4.691406 -5.65625 4.078125 -5.65625 C 3.515625 -5.65625 3.082031 -5.472656 2.78125 -5.109375 C 2.476562 -4.753906 2.328125 -4.222656 2.328125 -3.515625 C 2.328125 -2.804688 2.476562 -2.269531 2.78125 -1.90625 C 3.082031 -1.550781 3.515625 -1.375 4.078125 -1.375 C 4.691406 -1.375 5.285156 -1.578125 5.859375 -1.984375 L 6.421875 -0.6875 C 6.160156 -0.445312 5.8125 -0.253906 5.375 -0.109375 C 4.945312 0.0234375 4.503906 0.09375 4.046875 0.09375 Z M 4.046875 0.09375 "/></g></g></g><g fill="#000000" fill-opacity="1"><g transform="translate(99.450037, 21.463816)"><g><path d="M 3.96875 0.09375 C 3.257812 0.09375 2.632812 -0.0507812 2.09375 -0.34375 C 1.5625 -0.632812 1.148438 -1.050781 0.859375 -1.59375 C 0.578125 -2.144531 0.4375 -2.785156 0.4375 -3.515625 C 0.4375 -4.242188 0.582031 -4.878906 0.875 -5.421875 C 1.164062 -5.960938 1.578125 -6.378906 2.109375 -6.671875 C 2.640625 -6.960938 3.257812 -7.109375 3.96875 -7.109375 C 4.6875 -7.109375 5.3125 -6.960938 5.84375 -6.671875 C 6.375 -6.378906 6.78125 -5.960938 7.0625 -5.421875 C 7.34375 -4.878906 7.484375 -4.242188 7.484375 -3.515625 C 7.484375 -2.785156 7.34375 -2.144531 7.0625 -1.59375 C 6.78125 -1.050781 6.375 -0.632812 5.84375 -0.34375 C 5.3125 -0.0507812 4.6875 0.09375 3.96875 0.09375 Z M 3.96875 -1.328125 C 4.5 -1.328125 4.910156 -1.507812 5.203125 -1.875 C 5.503906 -2.25 5.65625 -2.796875 5.65625 -3.515625 C 5.65625 -4.222656 5.503906 -4.765625 5.203125 -5.140625 C 4.910156 -5.515625 4.5 -5.703125 3.96875 -5.703125 C 3.445312 -5.703125 3.035156 -5.515625 2.734375 -5.140625 C 2.441406 -4.773438 2.296875 -4.234375 2.296875 -3.515625 C 2.296875 -2.796875 2.441406 -2.25 2.734375 -1.875 C 3.035156 -1.507812 3.445312 -1.328125 3.96875 -1.328125 Z M 3.96875 -1.328125 "/></g></g></g><g fill="#000000" fill-opacity="1"><g transform="translate(108.239664, 21.463816)"><g><path d="M 6.296875 -7.015625 L 7.734375 -7.015625 L 7.734375 0 L 6.125 0 L 6.109375 -3.21875 L 4.78125 0 L 3.609375 0 L 2.265625 -3.171875 L 2.265625 0 L 0.65625 0 L 0.65625 -7.015625 L 2.109375 -7.015625 L 4.203125 -2.234375 Z M 6.296875 -7.015625 "/></g></g></g><g fill="#000000" fill-opacity="1"><g transform="translate(117.492923, 21.463816)"><g><path d="M 0.625 -7.015625 L 3.96875 -7.015625 C 4.769531 -7.015625 5.390625 -6.820312 5.828125 -6.4375 C 6.273438 -6.050781 6.5 -5.53125 6.5 -4.875 C 6.5 -4.226562 6.273438 -3.707031 5.828125 -3.3125 C 5.378906 -2.925781 4.757812 -2.734375 3.96875 -2.734375 L 2.484375 -2.734375 L 2.484375 0 L 0.625 0 Z M 3.734375 -4.125 C 4.421875 -4.125 4.765625 -4.367188 4.765625 -4.859375 C 4.765625 -5.109375 4.679688 -5.296875 4.515625 -5.421875 C 4.347656 -5.554688 4.085938 -5.625 3.734375 -5.625 L 2.484375 -5.625 L 2.484375 -4.125 Z M 3.734375 -4.125 "/></g></g></g><g fill="#000000" fill-opacity="1"><g transform="translate(125.098809, 21.463816)"><g><path d="M 5.984375 0 L 5.359375 -1.453125 L 2.25 -1.453125 L 1.625 0 L -0.234375 0 L 3.0625 -7.015625 L 4.515625 -7.015625 L 7.8125 0 Z M 2.84375 -2.84375 L 4.765625 -2.84375 L 3.8125 -5.0625 Z M 2.84375 -2.84375 "/></g></g></g><g fill="#000000" fill-opacity="1"><g transform="translate(133.533312, 21.463816)"><g><path d="M 6.734375 0 L 4.765625 0 L 3.859375 -2.34375 C 3.753906 -2.601562 3.507812 -2.734375 3.125 -2.734375 L 2.453125 -2.734375 L 2.453125 0 L 0.625 0 L 0.625 -7.015625 L 3.890625 -7.015625 C 4.742188 -7.015625 5.382812 -6.832031 5.8125 -6.46875 C 6.238281 -6.101562 6.453125 -5.582031 6.453125 -4.90625 C 6.453125 -4.4375 6.320312 -4.03125 6.0625 -3.6875 C 5.8125 -3.34375 5.457031 -3.097656 5 -2.953125 C 5.195312 -2.910156 5.375 -2.816406 5.53125 -2.671875 C 5.6875 -2.523438 5.8125 -2.332031 5.90625 -2.09375 Z M 3.59375 -4.109375 C 3.988281 -4.109375 4.273438 -4.164062 4.453125 -4.28125 C 4.628906 -4.40625 4.71875 -4.597656 4.71875 -4.859375 C 4.71875 -5.128906 4.628906 -5.320312 4.453125 -5.4375 C 4.285156 -5.5625 4 -5.625 3.59375 -5.625 L 2.4375 -5.625 L 2.4375 -4.109375 Z M 3.59375 -4.109375 "/></g></g></g><g fill="#000000" fill-opacity="1"><g transform="translate(141.425274, 21.463816)"><g><path d="M 0.625 0 L 0.625 -7.015625 L 5.640625 -7.015625 L 5.640625 -5.59375 L 2.4375 -5.59375 L 2.4375 -4.28125 L 5.4375 -4.28125 L 5.4375 -2.859375 L 2.4375 -2.859375 L 2.4375 -1.421875 L 5.640625 -1.421875 L 5.640625 0 Z M 0.625 0 "/></g></g></g></svg>