<svg xmlns="http://www.w3.org/2000/svg" xmlns:xlink="http://www.w3.org/1999/xlink" width="38.637" height="58.613" viewBox="0 0 38.637 58.613"><defs><clipPath id="clip-path"><path id="Path_1095" data-name="Path 1095" d="M0,31.41H38.637V-27.2H0Z" transform="translate(0 27.203)" fill="none"></path></clipPath></defs><g id="Group_417" data-name="Group 417" transform="translate(0 27.203)"><g id="Group_420" data-name="Group 420" transform="translate(0 -27.203)" clip-path="url(#clip-path)"><g id="Group_417-2" data-name="Group 417" transform="translate(4.115 -0.001)"><path id="Path_1092" data-name="Path 1092" d="M16.294,8.146a15.2,15.2,0,0,0-30.406,0c0,8.4,15.2,27.254,15.2,27.254S16.294,16.543,16.294,8.146M-4.03,4.026A5.121,5.121,0,1,1,1.089,9.148,5.119,5.119,0,0,1-4.03,4.026" transform="translate(14.112 7.055)" fill="#ff6300"></path></g><g id="Group_418" data-name="Group 418" transform="translate(9.566 41.143)"><path id="Path_1093" data-name="Path 1093" d="M2.854,1.536A1.487,1.487,0,0,0,1.736-1.22C-.938-.134-2.472,1.65-2.472,3.679c0,3.368,4.193,5.906,9.754,5.906s9.752-2.538,9.752-5.906c0-2.03-1.534-3.814-4.208-4.9A1.489,1.489,0,0,0,10.889-.4a1.488,1.488,0,0,0,.819,1.937c1.429.582,2.353,1.422,2.353,2.144,0,1.2-2.642,2.932-6.779,2.932S.5,4.875.5,3.679c0-.722.922-1.562,2.353-2.144" transform="translate(2.472 1.33)" fill="#ff6300"></path></g><g id="Group_419" data-name="Group 419" transform="translate(-0.001 38.509)"><path id="Path_1094" data-name="Path 1094" d="M16.416.059A1.487,1.487,0,1,0,15.3,2.815c3.848,1.56,6.147,3.885,6.147,6.214,0,4.363-7.485,8.05-16.345,8.05s-16.343-3.687-16.343-8.05c0-2.329,2.3-4.654,6.147-6.214A1.486,1.486,0,0,0-4.275.878,1.483,1.483,0,0,0-6.21.059c-5.087,2.062-8.007,5.333-8.007,8.97,0,6.182,8.485,11.023,19.319,11.023S24.422,15.211,24.422,9.029c0-3.637-2.917-6.908-8.007-8.97" transform="translate(14.217 0.052)" fill="#ff6300"></path></g></g></g></svg>